# xmcd CD database file
#
# Track frame offsets:
#	150
#	28055
#	46413
#	83873
#	104247
#	121776
#	158766
#	186081
#	238188
#	251899
#
# Disc length: 3844 seconds
#
# Revision: 0
# Processed by: cddbd v1.5.2PL0 Copyright (c) Steve Scherf et al.
# Submitted via: CDex 1.51
#
DISCID=870f020a
DTITLE=John Butler Trio - Three
DYEAR=1900
DGENRE=Blues
TTITLE0=Attitude
TTITLE1=Believe
TTITLE2=Betterman
TTITLE3=Don't Understand
TTITLE4=Earthbound Child
TTITLE5=Life Aint What Is Seems
TTITLE6=Media
TTITLE7=Money
TTITLE8=Pickapart
TTITLE9=Take
EXTD=
EXTT0=
EXTT1=
EXTT2=
EXTT3=
EXTT4=
EXTT5=
EXTT6=
EXTT7=
EXTT8=
EXTT9=
PLAYORDER=
